<svg width="343" height="69" viewBox="0 0 343 69" fill="none" xmlns="http://www.w3.org/2000/svg">
<rect y="0.836548" width="342.809" height="68.1398" rx="7.26606" fill="#014003"/>
<mask id="mask0_26_88" style="mask-type:luminance" maskUnits="userSpaceOnUse" x="0" y="0" width="343" height="69">
<rect y="0.836548" width="342.809" height="68.1398" rx="7.26606" fill="white"/>
</mask>
<g mask="url(#mask0_26_88)">
<rect y="0.836548" width="342.809" height="68.1398" fill="#014003"/>
</g>
<path fill-rule="evenodd" clip-rule="evenodd" d="M210.549 54.2715C211.982 52.9799 212.696 51.3069 212.696 49.2506C212.696 47.5794 212.207 46.1789 211.228 45.0599C210.245 43.9373 208.718 42.9582 206.638 42.1208C204.937 41.4505 203.766 40.8293 203.121 40.2552C202.38 39.634 202.011 38.8438 202.011 37.8883C202.011 37.0255 202.334 36.2971 202.979 35.6994C203.742 35.031 204.807 34.6949 206.169 34.6949C207.893 34.6949 209.433 35.0655 210.796 35.8066L211.764 32.6495C210.305 31.8847 208.478 31.5015 206.278 31.5015C203.811 31.5015 201.838 32.1354 200.36 33.4052C198.876 34.6731 198.134 36.3025 198.134 38.2898C198.134 41.3306 200.249 43.6431 204.481 45.2216C206.036 45.7974 207.15 46.4205 207.817 47.0908C208.487 47.7611 208.821 48.5876 208.821 49.5685C208.821 50.6693 208.416 51.5522 207.604 52.2097C206.788 52.8673 205.653 53.1979 204.194 53.1979C202.162 53.1979 200.296 52.682 198.596 51.6539L197.699 54.8818C199.277 55.8864 201.362 56.3877 203.964 56.3877C206.781 56.3877 208.974 55.6829 210.549 54.2715ZM150.218 56.03H146.093L143.833 48.9292H135.979L133.826 56.03H129.81L137.592 31.8558H142.398L150.218 56.03ZM143.152 45.9504L141.109 39.638C140.892 38.9932 140.487 37.4746 139.89 35.084H139.817C139.579 36.1122 139.196 37.6308 138.669 39.638L136.662 45.9504H143.152ZM167.828 54.1279C169.43 52.4077 170.231 50.0644 170.231 47.0998C170.231 44.4459 169.544 42.3061 168.167 40.6785C166.794 39.0527 165.077 38.2407 163.021 38.2407C160.391 38.2407 158.431 39.2797 157.139 41.3615H157.067L156.85 38.5985H153.444C153.539 40.5604 153.588 42.4732 153.588 44.3369V63.1324H157.461V53.9499H157.533C158.538 55.5993 160.187 56.424 162.483 56.424C164.611 56.424 166.393 55.6593 167.828 54.1279ZM166.285 47.2416C166.285 45.545 165.904 44.1462 165.137 43.0454C164.3 41.8974 163.176 41.3234 161.766 41.3234C160.811 41.3234 159.942 41.6431 159.167 42.2734C158.389 42.9092 157.88 43.7393 157.642 44.7675C157.523 45.2471 157.463 45.6394 157.463 45.9482V48.8547C157.463 50.1226 157.851 51.1925 158.629 52.0662C159.406 52.94 160.416 53.376 161.659 53.376C163.117 53.376 164.253 52.8128 165.065 51.6902C165.879 50.5658 166.285 49.0835 166.285 47.2416ZM187.875 54.1279C189.479 52.4077 190.28 50.0644 190.28 47.0998C190.28 44.4459 189.591 42.3061 188.22 40.6785C186.843 39.0527 185.126 38.2407 183.072 38.2407C180.44 38.2407 178.48 39.2797 177.19 41.3615H177.117L176.901 38.5985H173.495C173.59 40.5604 173.639 42.4732 173.639 44.3369V63.1324H177.512V53.9499H177.584C178.587 55.5993 180.236 56.424 182.532 56.424C184.66 56.424 186.442 55.6593 187.875 54.1279ZM186.334 47.2416C186.334 45.545 185.951 44.1462 185.185 43.0454C184.347 41.8974 183.226 41.3234 181.815 41.3234C180.858 41.3234 179.991 41.6431 179.214 42.2734C178.436 42.9092 177.929 43.7393 177.691 44.7675C177.573 45.2471 177.512 45.6394 177.512 45.9482V48.8547C177.512 50.1226 177.9 51.1925 178.674 52.0662C179.452 52.9382 180.462 53.376 181.708 53.376C183.166 53.376 184.302 52.8128 185.114 51.6902C185.927 50.5658 186.334 49.0835 186.334 47.2416ZM225.5 41.5052H221.231V49.9684C221.231 52.1209 221.983 53.1963 223.491 53.1963C224.183 53.1963 224.757 53.1364 225.211 53.0165L225.319 55.9574C224.556 56.2426 223.551 56.3861 222.307 56.3861C220.777 56.3861 219.582 55.9193 218.719 54.9874C217.86 54.0537 217.428 52.4879 217.428 50.2881V41.5016H214.885V38.5952H217.428V35.4036L221.231 34.2555V38.5952H225.5V41.5052ZM242.465 53.77C243.994 52.0497 244.761 49.8499 244.761 47.1706C244.761 44.5639 244.02 42.4367 242.534 40.7892C240.981 39.0907 238.922 38.2424 236.365 38.2424C233.711 38.2424 231.6 39.1034 230.036 40.8255C228.468 42.5457 227.687 44.7582 227.687 47.4594C227.687 50.0407 228.447 52.1823 229.965 53.879C231.484 55.5756 233.52 56.4239 236.078 56.4239C238.732 56.4239 240.861 55.5411 242.465 53.77ZM240.743 47.2962C240.743 45.6886 240.399 44.3099 239.704 43.16C238.892 41.7685 237.731 41.0746 236.227 41.0746C234.67 41.0746 233.487 41.7704 232.675 43.16C231.98 44.3117 231.636 45.7122 231.636 47.3689C231.636 48.9765 231.98 50.3552 232.675 51.5033C233.513 52.8947 234.683 53.5886 236.192 53.5886C237.671 53.5886 238.832 52.8802 239.669 51.4669C240.383 50.2953 240.743 48.902 240.743 47.2962ZM256.128 41.8974C256.557 41.8974 256.966 41.9337 257.349 42.0045V38.3116C257.062 38.2662 256.739 38.2407 256.381 38.2407C255.376 38.2407 254.445 38.5514 253.582 39.1744C252.699 39.8665 252.054 40.7893 251.645 41.9355H251.538L251.396 38.6004H248.023C248.119 40.2498 248.169 42.079 248.169 44.0881L248.132 56.0299H252.003V46.8837C252.003 45.4977 252.326 44.3497 252.971 43.4414C253.713 42.4114 254.766 41.8974 256.128 41.8974ZM274.67 46.4894C274.67 47.1833 274.624 47.7683 274.528 48.246H262.91C262.955 49.9681 263.516 51.285 264.595 52.1933C265.574 53.0053 266.84 53.4122 268.395 53.4122C270.116 53.4122 271.685 53.1379 273.097 52.5875L273.703 55.2759C272.054 55.9953 270.107 56.3531 267.86 56.3531C265.157 56.3531 263.035 55.5575 261.491 53.968C259.95 52.3786 259.178 50.2442 259.178 47.5666C259.178 44.9381 259.896 42.7492 261.333 41.0036C262.837 39.1398 264.87 38.2079 267.427 38.2079C269.939 38.2079 271.841 39.1398 273.133 41.0036C274.156 42.484 274.67 44.3151 274.67 46.4894ZM270.225 42.5077C270.75 43.3451 271.002 44.3369 270.977 45.485V45.4831H262.91C263.028 44.3133 263.411 43.3088 264.056 42.4714C264.842 41.4178 265.872 40.8928 267.138 40.8928C268.524 40.8928 269.554 41.4305 270.225 42.5077Z" fill="white"/>
<path fill-rule="evenodd" clip-rule="evenodd" d="M181.904 23.2035H180.002V10.7113H181.904V23.2035ZM139.95 21.8121C141.23 20.7313 141.872 19.1218 141.872 16.9838C141.872 15.0801 141.278 13.6178 140.093 12.5951C139.036 11.6905 137.468 11.2382 135.388 11.2382C134.211 11.2382 133.121 11.3217 132.11 11.4852V23.1672C132.885 23.2617 133.812 23.3089 134.894 23.3089C137.078 23.3089 138.764 22.8094 139.95 21.8121ZM138.764 13.8467C139.497 14.5878 139.864 15.6505 139.864 17.0365C139.864 18.5878 139.465 19.7685 138.673 20.5787C137.881 21.3888 136.756 21.7939 135.299 21.7939C134.676 21.7939 134.248 21.7776 134.013 21.7412V12.8603C134.437 12.7767 134.947 12.7368 135.546 12.7368C136.958 12.7368 138.03 13.1073 138.764 13.8467ZM152.515 18.8515C152.515 20.1684 152.139 21.2475 151.386 22.0939C150.598 22.9641 149.554 23.3982 148.249 23.3982C146.992 23.3982 145.991 22.9822 145.245 22.1466C144.5 21.3128 144.128 20.2611 144.128 18.9932C144.128 17.6671 144.511 16.579 145.281 15.7343C146.051 14.8896 147.087 14.4664 148.391 14.4664C149.648 14.4664 150.658 14.8824 151.423 15.7162C152.149 16.5263 152.515 17.5726 152.515 18.8515ZM150.03 16.8803C150.369 17.4452 150.54 18.1228 150.54 18.913C150.54 19.7032 150.364 20.3862 150.011 20.962C149.601 21.6577 149.03 22.0047 148.304 22.0047C147.563 22.0047 146.989 21.6632 146.576 20.9802C146.237 20.4152 146.066 19.7377 146.066 18.9475C146.066 18.1337 146.235 17.4452 146.576 16.8803C146.976 16.1973 147.557 15.8558 148.322 15.8558C149.061 15.8558 149.63 16.1973 150.03 16.8803ZM166.785 14.6405L166.785 14.6424H164.916L163.877 18.6423C163.619 19.6414 163.425 20.5805 163.296 21.4615H163.243C163.067 20.5569 162.838 19.6178 162.556 18.6423L161.392 14.6424H159.841L158.625 18.7295C158.295 19.8321 158.06 20.744 157.919 21.4597H157.884C157.73 20.5914 157.537 19.6741 157.303 18.7113L156.335 14.6405H154.378L156.898 23.2036H158.662L159.841 19.4852C160.135 18.5806 160.364 17.6596 160.529 16.7186H160.564C160.742 17.6342 160.97 18.5569 161.252 19.4852L162.362 23.2036H164.106L166.785 14.6424H166.785V14.6405ZM174.75 23.2034H176.654V18.0735C176.654 16.8165 176.325 15.8701 175.668 15.2361C175.139 14.7184 174.474 14.4605 173.675 14.4605C173.043 14.4605 172.465 14.6221 171.949 14.9418C171.515 15.2161 171.185 15.5595 170.963 15.9754H170.91L170.821 14.6367H169.148C169.194 15.5195 169.217 16.3351 169.217 17.0872V23.2015H171.121V18.1226C171.121 17.5613 171.299 17.0708 171.65 16.6548C172.004 16.2388 172.46 16.0318 173.025 16.0318C174.176 16.0318 174.75 16.7874 174.75 18.2988V23.2034ZM191.984 22.0933C192.736 21.2469 193.112 20.1678 193.112 18.8509C193.112 17.572 192.747 16.5257 192.02 15.7156C191.254 14.8818 190.245 14.4658 188.987 14.4658C187.684 14.4658 186.649 14.8891 185.878 15.7337C185.108 16.5784 184.725 17.6665 184.725 18.9926C184.725 20.2605 185.097 21.3122 185.842 22.146C186.587 22.9816 187.588 23.3976 188.847 23.3976C190.149 23.3976 191.195 22.9635 191.984 22.0933ZM191.135 18.913C191.135 18.1228 190.965 17.4452 190.625 16.8803C190.227 16.1973 189.657 15.8558 188.919 15.8558C188.153 15.8558 187.571 16.1973 187.174 16.8803C186.832 17.4452 186.663 18.1337 186.663 18.9475C186.663 19.7377 186.834 20.4152 187.174 20.9801C187.586 21.6632 188.16 22.0047 188.901 22.0047C189.628 22.0047 190.196 21.6577 190.607 20.962C190.961 20.3861 191.135 19.7031 191.135 18.913ZM200.616 23.2033H202.325C202.243 22.6983 202.202 22.0171 202.202 21.1616V18.0081C202.202 15.6466 201.079 14.4659 198.841 14.4659C197.682 14.4659 196.699 14.7129 195.904 15.2052L196.291 16.455C196.934 16.0335 197.679 15.821 198.523 15.821C199.709 15.821 200.302 16.3841 200.302 17.5122V17.672C198.716 17.6593 197.484 17.93 196.609 18.4822C195.731 19.0344 195.295 19.8319 195.295 20.8782C195.295 21.5703 195.519 22.1534 195.966 22.622C196.458 23.1379 197.112 23.3977 197.92 23.3977C199.003 23.3977 199.837 23.0035 200.421 22.217H200.474L200.616 23.2033ZM200.349 20.2607V18.9401C198.249 18.9037 197.199 19.4796 197.199 20.6658C197.199 21.1126 197.319 21.4469 197.564 21.6703C197.809 21.8937 198.122 22.0045 198.494 22.0045C198.912 22.0045 199.302 21.8719 199.659 21.6085C200.016 21.3433 200.236 21.0073 200.318 20.5949C200.338 20.5023 200.349 20.3896 200.349 20.2607ZM211.453 23.2036H213.143C213.097 22.4988 213.075 21.7304 213.075 20.8966V10.7114H211.17V15.6269H211.133C210.676 14.8512 209.871 14.4643 208.721 14.4643C207.675 14.4643 206.796 14.8639 206.078 15.6632C205.337 16.5206 204.968 17.6432 204.968 19.0292C204.968 20.3208 205.308 21.3725 205.989 22.1827C206.67 22.9928 207.529 23.3979 208.561 23.3979C209.853 23.3979 210.772 22.8748 211.311 21.8285H211.364L211.453 23.2036ZM211.17 19.5925V18.1647C211.17 17.9176 211.152 17.7178 211.117 17.5652C211.01 17.1075 210.779 16.7224 210.429 16.4117C210.074 16.1011 209.648 15.9449 209.155 15.9449C208.445 15.9449 207.889 16.2265 207.48 16.7914C207.075 17.3563 206.87 18.0775 206.87 18.9585C206.87 19.805 207.064 20.4916 207.455 21.0202C207.867 21.5834 208.423 21.8649 209.119 21.8649C209.744 21.8649 210.243 21.6306 210.623 21.1601C210.99 20.726 211.17 20.2028 211.17 19.5925ZM228.296 22.0934C229.048 21.2469 229.424 20.1679 229.424 18.851C229.424 17.5721 229.059 16.5258 228.332 15.7157C227.569 14.8819 226.557 14.4659 225.302 14.4659C223.996 14.4659 222.961 14.8891 222.191 15.7338C221.42 16.5785 221.037 17.6666 221.037 18.9926C221.037 20.2606 221.409 21.3123 222.154 22.1461C222.903 22.9817 223.904 23.3977 225.159 23.3977C226.465 23.3977 227.507 22.9635 228.296 22.0934ZM227.451 18.913C227.451 18.1228 227.28 17.4452 226.941 16.8803C226.539 16.1973 225.973 15.8558 225.231 15.8558C224.468 15.8558 223.887 16.1973 223.486 16.8803C223.144 17.4452 222.975 18.1337 222.975 18.9475C222.975 19.7377 223.146 20.4152 223.486 20.9801C223.898 21.6632 224.472 22.0047 225.213 22.0047C225.94 22.0047 226.512 21.6577 226.923 20.962C227.273 20.3861 227.451 19.7031 227.451 18.913ZM237.758 23.2034H239.66V18.0736C239.66 16.8166 239.333 15.8702 238.674 15.2362C238.145 14.7185 237.48 14.4606 236.683 14.4606C236.049 14.4606 235.473 14.6222 234.955 14.9419C234.523 15.2162 234.192 15.5596 233.969 15.9755H233.916L233.827 14.6368H232.156C232.201 15.5196 232.223 16.3352 232.223 17.0872V23.2016H234.129V18.1227C234.129 17.5614 234.305 17.0709 234.657 16.6549C235.01 16.2389 235.466 16.0318 236.031 16.0318C237.184 16.0318 237.758 16.7875 237.758 18.2989V23.2034ZM252.47 16.0665H250.376V20.2263C250.376 21.2835 250.748 21.8121 251.486 21.8121C251.827 21.8121 252.11 21.783 252.334 21.7231L252.383 23.1672C252.007 23.3089 251.513 23.3797 250.904 23.3797C250.152 23.3797 249.567 23.1509 249.144 22.6931C248.719 22.2353 248.508 21.4651 248.508 20.3843V16.0665H247.257V14.6405H248.508V13.071L250.374 12.5079V14.6387H252.47V16.0665ZM260.644 23.2036H262.55V18.1119C262.55 16.8439 262.227 15.8848 261.582 15.24C261.064 14.7223 260.412 14.4643 259.623 14.4643C258.51 14.4643 257.651 14.933 257.051 15.8721H257.015V10.7114H255.113V23.2017H257.015V18.0519C257.015 17.7831 257.048 17.5542 257.104 17.3671C257.435 16.477 258.038 16.032 258.92 16.032C260.07 16.032 260.644 16.8004 260.644 18.3353V23.2036ZM272.946 18.5172C272.946 18.8587 272.92 19.1457 272.875 19.38H267.166C267.191 20.2265 267.464 20.8714 267.992 21.3182C268.475 21.7179 269.098 21.9177 269.861 21.9177C270.706 21.9177 271.476 21.7832 272.17 21.5126L272.468 22.835C271.656 23.1874 270.701 23.3636 269.594 23.3636C268.268 23.3636 267.224 22.9731 266.468 22.192C265.709 21.4109 265.333 20.3627 265.333 19.0476C265.333 17.756 265.683 16.6807 266.39 15.8233C267.128 14.9077 268.125 14.45 269.384 14.45C270.615 14.45 271.551 14.9077 272.183 15.8233C272.693 16.5499 272.946 17.449 272.946 18.5172ZM270.761 16.5622C271.018 16.9727 271.144 17.4596 271.129 18.0245H267.166C267.227 17.4487 267.415 16.9564 267.731 16.544C268.118 16.0263 268.624 15.7684 269.246 15.7684C269.927 15.7684 270.43 16.0336 270.761 16.5622Z" fill="white"/>
<path d="M107.5 34.7403C107.447 28.8857 112.293 26.0374 112.515 25.9048C109.77 21.903 105.516 21.3562 104.021 21.3126C100.448 20.9366 96.9819 23.4507 95.1617 23.4507C93.3053 23.4507 90.5024 21.349 87.4815 21.4107C83.5942 21.4707 79.9575 23.7213 77.963 27.2163C73.8468 34.3425 76.9167 44.8147 80.8603 50.5749C82.8331 53.3959 85.1382 56.5457 88.1554 56.4349C91.1073 56.3132 92.2099 54.553 95.7721 54.553C99.3016 54.553 100.337 56.4349 103.414 56.3641C106.582 56.3132 108.577 53.5303 110.48 50.6839C112.76 47.4505 113.676 44.2661 113.712 44.1026C113.638 44.0772 107.559 41.7575 107.5 34.7403Z" fill="white"/>
<path d="M101.687 17.5236C103.274 15.5381 104.361 12.8369 104.059 10.0958C101.761 10.1976 98.8875 11.6853 97.2326 13.6271C95.7685 15.3383 94.4606 18.143 94.7985 20.7806C97.3797 20.9731 100.03 19.4781 101.687 17.5236Z" fill="white"/>
<rect x="0.496825" y="1.33337" width="341.815" height="67.1461" rx="21.8864" stroke="#014003" stroke-width="0.99365"/>
</svg>
