<svg width="230" height="65" viewBox="0 0 230 65" fill="none" xmlns="http://www.w3.org/2000/svg">
<path d="M36.2528 40.5279H30.8377V23.8006H36.4244C38.0633 23.8006 39.4709 24.1355 40.647 24.8052C41.8232 25.4695 42.7243 26.4251 43.3505 27.672C43.9821 28.9135 44.2979 30.4027 44.2979 32.1397C44.2979 33.8821 43.9794 35.3795 43.3423 36.6319C42.7107 37.8843 41.7959 38.8481 40.598 39.5232C39.4001 40.193 37.9517 40.5279 36.2528 40.5279ZM33.3615 38.3226H36.114C37.3881 38.3226 38.4472 38.083 39.2912 37.6039C40.1352 37.1192 40.7668 36.4196 41.1861 35.5048C41.6054 34.5846 41.815 33.4629 41.815 32.1397C41.815 30.8275 41.6054 29.7139 41.1861 28.7992C40.7723 27.8844 40.1542 27.1901 39.332 26.7164C38.5098 26.2427 37.4889 26.0058 36.2692 26.0058H33.3615V38.3226ZM52.5248 40.7811C51.3486 40.7811 50.3222 40.5115 49.4456 39.9725C48.5689 39.4334 47.8883 38.6793 47.4037 37.71C46.9191 36.7408 46.6768 35.6082 46.6768 34.3123C46.6768 33.0109 46.9191 31.8729 47.4037 30.8982C47.8883 29.9236 48.5689 29.1667 49.4456 28.6276C50.3222 28.0886 51.3486 27.8191 52.5248 27.8191C53.7009 27.8191 54.7273 28.0886 55.604 28.6276C56.4806 29.1667 57.1613 29.9236 57.6459 30.8982C58.1305 31.8729 58.3728 33.0109 58.3728 34.3123C58.3728 35.6082 58.1305 36.7408 57.6459 37.71C57.1613 38.6793 56.4806 39.4334 55.604 39.9725C54.7273 40.5115 53.7009 40.7811 52.5248 40.7811ZM52.5329 38.731C53.2952 38.731 53.9269 38.5295 54.4278 38.1266C54.9288 37.7236 55.299 37.1873 55.5386 36.5176C55.7836 35.8478 55.9062 35.11 55.9062 34.3041C55.9062 33.5037 55.7836 32.7686 55.5386 32.0989C55.299 31.4237 54.9288 30.8819 54.4278 30.4735C53.9269 30.0651 53.2952 29.861 52.5329 29.861C51.7652 29.861 51.1281 30.0651 50.6217 30.4735C50.1208 30.8819 49.7478 31.4237 49.5028 32.0989C49.2632 32.7686 49.1434 33.5037 49.1434 34.3041C49.1434 35.11 49.2632 35.8478 49.5028 36.5176C49.7478 37.1873 50.1208 37.7236 50.6217 38.1266C51.1281 38.5295 51.7652 38.731 52.5329 38.731ZM63.4367 40.5279L59.7449 27.9824H62.2687L64.7272 37.1955H64.8497L67.3163 27.9824H69.8401L72.2904 37.1546H72.4129L74.855 27.9824H77.3788L73.6952 40.5279H71.2041L68.6558 31.47H68.468L65.9197 40.5279H63.4367ZM82.1385 33.079V40.5279H79.6964V27.9824H82.0405V30.0243H82.1957C82.4843 29.36 82.9362 28.8264 83.5515 28.4235C84.1722 28.0205 84.9536 27.8191 85.8956 27.8191C86.7505 27.8191 87.4992 27.9987 88.1417 28.3581C88.7842 28.712 89.2824 29.2402 89.6364 29.9426C89.9903 30.645 90.1673 31.5135 90.1673 32.5481V40.5279H87.7251V32.8421C87.7251 31.9328 87.4883 31.2222 87.0146 30.7104C86.5408 30.1931 85.8902 29.9345 85.0625 29.9345C84.4962 29.9345 83.9925 30.057 83.5515 30.302C83.1159 30.547 82.7701 30.9064 82.5142 31.3801C82.2637 31.8484 82.1385 32.4147 82.1385 33.079ZM95.8846 23.8006V40.5279H93.4425V23.8006H95.8846ZM104.454 40.7811C103.278 40.7811 102.252 40.5115 101.375 39.9725C100.499 39.4334 99.818 38.6793 99.3334 37.71C98.8488 36.7408 98.6064 35.6082 98.6064 34.3123C98.6064 33.0109 98.8488 31.8729 99.3334 30.8982C99.818 29.9236 100.499 29.1667 101.375 28.6276C102.252 28.0886 103.278 27.8191 104.454 27.8191C105.631 27.8191 106.657 28.0886 107.534 28.6276C108.41 29.1667 109.091 29.9236 109.576 30.8982C110.06 31.8729 110.302 33.0109 110.302 34.3123C110.302 35.6082 110.06 36.7408 109.576 37.71C109.091 38.6793 108.41 39.4334 107.534 39.9725C106.657 40.5115 105.631 40.7811 104.454 40.7811ZM104.463 38.731C105.225 38.731 105.857 38.5295 106.358 38.1266C106.858 37.7236 107.229 37.1873 107.468 36.5176C107.713 35.8478 107.836 35.11 107.836 34.3041C107.836 33.5037 107.713 32.7686 107.468 32.0989C107.229 31.4237 106.858 30.8819 106.358 30.4735C105.857 30.0651 105.225 29.861 104.463 29.861C103.695 29.861 103.058 30.0651 102.551 30.4735C102.05 30.8819 101.677 31.4237 101.432 32.0989C101.193 32.7686 101.073 33.5037 101.073 34.3041C101.073 35.11 101.193 35.8478 101.432 36.5176C101.677 37.1873 102.05 37.7236 102.551 38.1266C103.058 38.5295 103.695 38.731 104.463 38.731ZM116.679 40.8056C115.884 40.8056 115.166 40.6585 114.523 40.3645C113.881 40.065 113.371 39.6321 112.996 39.0659C112.625 38.4996 112.44 37.8053 112.44 36.9831C112.44 36.2753 112.576 35.6926 112.849 35.2352C113.121 34.7779 113.489 34.4158 113.951 34.149C114.414 33.8821 114.931 33.6807 115.503 33.5446C116.075 33.4084 116.658 33.305 117.251 33.2342C118.002 33.1471 118.612 33.0763 119.081 33.0218C119.549 32.9619 119.889 32.8666 120.102 32.736C120.314 32.6053 120.42 32.3929 120.42 32.0989V32.0417C120.42 31.3284 120.219 30.7757 119.816 30.3837C119.418 29.9916 118.825 29.7956 118.035 29.7956C117.213 29.7956 116.565 29.978 116.091 30.3428C115.623 30.7022 115.299 31.1024 115.119 31.5435L112.824 31.0208C113.096 30.2584 113.494 29.6432 114.017 29.1749C114.545 28.7012 115.152 28.3581 115.838 28.1458C116.524 27.928 117.246 27.8191 118.002 27.8191C118.503 27.8191 119.034 27.879 119.595 27.9987C120.161 28.1131 120.69 28.3254 121.18 28.6358C121.675 28.9462 122.081 29.39 122.397 29.9671C122.712 30.5389 122.87 31.2821 122.87 32.1969V40.5279H120.485V38.8127H120.387C120.23 39.1285 119.993 39.4388 119.677 39.7438C119.361 40.0487 118.955 40.3019 118.46 40.5034C117.964 40.7048 117.371 40.8056 116.679 40.8056ZM117.21 38.8453C117.885 38.8453 118.463 38.7119 118.942 38.4451C119.426 38.1783 119.794 37.8298 120.044 37.3997C120.3 36.9641 120.428 36.4985 120.428 36.003V34.3858C120.341 34.4729 120.172 34.5546 119.922 34.6308C119.677 34.7016 119.396 34.7642 119.081 34.8187C118.765 34.8677 118.457 34.914 118.158 34.9576C117.858 34.9957 117.608 35.0283 117.406 35.0556C116.933 35.1155 116.5 35.2162 116.108 35.3578C115.721 35.4993 115.411 35.7035 115.176 35.9703C114.948 36.2317 114.833 36.5802 114.833 37.0158C114.833 37.6202 115.057 38.0776 115.503 38.3879C115.95 38.6929 116.519 38.8453 117.21 38.8453ZM130.82 40.7729C129.807 40.7729 128.903 40.5142 128.108 39.997C127.318 39.4742 126.698 38.731 126.246 37.7672C125.799 36.798 125.576 35.6355 125.576 34.2796C125.576 32.9238 125.802 31.764 126.254 30.8002C126.711 29.8365 127.337 29.0986 128.132 28.5868C128.927 28.075 129.829 27.8191 130.836 27.8191C131.614 27.8191 132.241 27.9497 132.714 28.2111C133.194 28.467 133.564 28.7665 133.825 29.1095C134.092 29.4526 134.299 29.7548 134.446 30.0161H134.593V23.8006H137.035V40.5279H134.65V38.5758H134.446C134.299 38.8426 134.087 39.1475 133.809 39.4906C133.537 39.8336 133.161 40.1331 132.682 40.389C132.203 40.6449 131.582 40.7729 130.82 40.7729ZM131.359 38.6901C132.061 38.6901 132.655 38.505 133.139 38.1348C133.629 37.759 133.999 37.239 134.25 36.5747C134.506 35.9104 134.634 35.1372 134.634 34.2551C134.634 33.3839 134.509 32.6216 134.258 31.9682C134.008 31.3148 133.64 30.8057 133.155 30.4409C132.671 30.076 132.072 29.8936 131.359 29.8936C130.623 29.8936 130.011 30.0842 129.521 30.4654C129.031 30.8465 128.661 31.3665 128.41 32.0254C128.165 32.6842 128.043 33.4275 128.043 34.2551C128.043 35.0937 128.168 35.8478 128.418 36.5176C128.669 37.1873 129.039 37.7182 129.529 38.1102C130.025 38.4968 130.634 38.6901 131.359 38.6901ZM166.392 23.8006V40.5279H164.072L155.569 28.2601H155.414V40.5279H152.89V23.8006H155.226L163.737 36.0847H163.892V23.8006H166.392ZM175.161 40.7811C173.985 40.7811 172.959 40.5115 172.082 39.9725C171.206 39.4334 170.525 38.6793 170.04 37.71C169.556 36.7408 169.313 35.6082 169.313 34.3123C169.313 33.0109 169.556 31.8729 170.04 30.8982C170.525 29.9236 171.206 29.1667 172.082 28.6276C172.959 28.0886 173.985 27.8191 175.161 27.8191C176.338 27.8191 177.364 28.0886 178.241 28.6276C179.117 29.1667 179.798 29.9236 180.283 30.8982C180.767 31.8729 181.009 33.0109 181.009 34.3123C181.009 35.6082 180.767 36.7408 180.283 37.71C179.798 38.6793 179.117 39.4334 178.241 39.9725C177.364 40.5115 176.338 40.7811 175.161 40.7811ZM175.17 38.731C175.932 38.731 176.564 38.5295 177.065 38.1266C177.565 37.7236 177.936 37.1873 178.175 36.5176C178.42 35.8478 178.543 35.11 178.543 34.3041C178.543 33.5037 178.42 32.7686 178.175 32.0989C177.936 31.4237 177.565 30.8819 177.065 30.4735C176.564 30.0651 175.932 29.861 175.17 29.861C174.402 29.861 173.765 30.0651 173.258 30.4735C172.757 30.8819 172.384 31.4237 172.139 32.0989C171.9 32.7686 171.78 33.5037 171.78 34.3041C171.78 35.11 171.9 35.8478 172.139 36.5176C172.384 37.1873 172.757 37.7236 173.258 38.1266C173.765 38.5295 174.402 38.731 175.17 38.731ZM186.073 40.5279L182.382 27.9824H184.905L187.364 37.1955H187.486L189.953 27.9824H192.477L194.927 37.1546H195.05L197.492 27.9824H200.016L196.332 40.5279H193.841L191.293 31.47H191.105L188.556 40.5279H186.073Z" fill="white"/>
<rect x="1.15" y="1.70017" width="227.7" height="61.6554" rx="30.8277" stroke="white" stroke-width="2.3"/>
</svg>
