<svg width="230" height="64" viewBox="0 0 230 64" fill="none" xmlns="http://www.w3.org/2000/svg">
<rect x="1.15" y="1.15" width="227.7" height="60.95" rx="30.475" fill="#014003"/>
<path d="M36.2528 39.625H30.8377V22.8977H36.4244C38.0633 22.8977 39.4709 23.2326 40.647 23.9023C41.8232 24.5666 42.7243 25.5223 43.3505 26.7692C43.9821 28.0107 44.2979 29.4999 44.2979 31.2369C44.2979 32.9793 43.9794 34.4767 43.3423 35.729C42.7107 36.9814 41.7959 37.9452 40.598 38.6204C39.4001 39.2901 37.9517 39.625 36.2528 39.625ZM33.3615 37.4197H36.114C37.3881 37.4197 38.4472 37.1802 39.2912 36.701C40.1352 36.2164 40.7668 35.5167 41.1861 34.6019C41.6054 33.6817 41.815 32.56 41.815 31.2369C41.815 29.9246 41.6054 28.8111 41.1861 27.8963C40.7723 26.9815 40.1542 26.2873 39.332 25.8136C38.5098 25.3398 37.4889 25.103 36.2692 25.103H33.3615V37.4197ZM52.5248 39.8782C51.3486 39.8782 50.3222 39.6087 49.4456 39.0696C48.5689 38.5305 47.8883 37.7764 47.4037 36.8072C46.9191 35.8379 46.6768 34.7054 46.6768 33.4094C46.6768 32.1081 46.9191 30.9701 47.4037 29.9954C47.8883 29.0207 48.5689 28.2638 49.4456 27.7248C50.3222 27.1857 51.3486 26.9162 52.5248 26.9162C53.7009 26.9162 54.7273 27.1857 55.604 27.7248C56.4806 28.2638 57.1613 29.0207 57.6459 29.9954C58.1305 30.9701 58.3728 32.1081 58.3728 33.4094C58.3728 34.7054 58.1305 35.8379 57.6459 36.8072C57.1613 37.7764 56.4806 38.5305 55.604 39.0696C54.7273 39.6087 53.7009 39.8782 52.5248 39.8782ZM52.5329 37.8281C53.2952 37.8281 53.9269 37.6267 54.4278 37.2237C54.9288 36.8208 55.299 36.2844 55.5386 35.6147C55.7836 34.945 55.9062 34.2071 55.9062 33.4013C55.9062 32.6009 55.7836 31.8658 55.5386 31.196C55.299 30.5208 54.9288 29.979 54.4278 29.5707C53.9269 29.1623 53.2952 28.9581 52.5329 28.9581C51.7652 28.9581 51.1281 29.1623 50.6217 29.5707C50.1208 29.979 49.7478 30.5208 49.5028 31.196C49.2632 31.8658 49.1434 32.6009 49.1434 33.4013C49.1434 34.2071 49.2632 34.945 49.5028 35.6147C49.7478 36.2844 50.1208 36.8208 50.6217 37.2237C51.1281 37.6267 51.7652 37.8281 52.5329 37.8281ZM63.4367 39.625L59.7449 27.0795H62.2687L64.7272 36.2926H64.8497L67.3163 27.0795H69.8401L72.2904 36.2518H72.4129L74.855 27.0795H77.3788L73.6952 39.625H71.2041L68.6558 30.5671H68.468L65.9197 39.625H63.4367ZM82.1385 32.1761V39.625H79.6964V27.0795H82.0405V29.1214H82.1957C82.4843 28.4571 82.9362 27.9235 83.5515 27.5206C84.1722 27.1177 84.9536 26.9162 85.8956 26.9162C86.7505 26.9162 87.4992 27.0959 88.1417 27.4553C88.7842 27.8092 89.2824 28.3374 89.6364 29.0398C89.9903 29.7422 90.1673 30.6107 90.1673 31.6452V39.625H87.7251V31.9393C87.7251 31.0299 87.4883 30.3194 87.0146 29.8075C86.5408 29.2902 85.8902 29.0316 85.0625 29.0316C84.4962 29.0316 83.9925 29.1541 83.5515 29.3991C83.1159 29.6442 82.7701 30.0036 82.5142 30.4773C82.2637 30.9455 82.1385 31.5118 82.1385 32.1761ZM95.8846 22.8977V39.625H93.4425V22.8977H95.8846ZM104.454 39.8782C103.278 39.8782 102.252 39.6087 101.375 39.0696C100.499 38.5305 99.818 37.7764 99.3334 36.8072C98.8488 35.8379 98.6064 34.7054 98.6064 33.4094C98.6064 32.1081 98.8488 30.9701 99.3334 29.9954C99.818 29.0207 100.499 28.2638 101.375 27.7248C102.252 27.1857 103.278 26.9162 104.454 26.9162C105.631 26.9162 106.657 27.1857 107.534 27.7248C108.41 28.2638 109.091 29.0207 109.576 29.9954C110.06 30.9701 110.302 32.1081 110.302 33.4094C110.302 34.7054 110.06 35.8379 109.576 36.8072C109.091 37.7764 108.41 38.5305 107.534 39.0696C106.657 39.6087 105.631 39.8782 104.454 39.8782ZM104.463 37.8281C105.225 37.8281 105.857 37.6267 106.358 37.2237C106.858 36.8208 107.229 36.2844 107.468 35.6147C107.713 34.945 107.836 34.2071 107.836 33.4013C107.836 32.6009 107.713 31.8658 107.468 31.196C107.229 30.5208 106.858 29.979 106.358 29.5707C105.857 29.1623 105.225 28.9581 104.463 28.9581C103.695 28.9581 103.058 29.1623 102.551 29.5707C102.05 29.979 101.677 30.5208 101.432 31.196C101.193 31.8658 101.073 32.6009 101.073 33.4013C101.073 34.2071 101.193 34.945 101.432 35.6147C101.677 36.2844 102.05 36.8208 102.551 37.2237C103.058 37.6267 103.695 37.8281 104.463 37.8281ZM116.679 39.9027C115.884 39.9027 115.166 39.7557 114.523 39.4616C113.881 39.1622 113.371 38.7293 112.996 38.163C112.625 37.5967 112.44 36.9025 112.44 36.0803C112.44 35.3724 112.576 34.7898 112.849 34.3324C113.121 33.875 113.489 33.5129 113.951 33.2461C114.414 32.9793 114.931 32.7778 115.503 32.6417C116.075 32.5056 116.658 32.4021 117.251 32.3313C118.002 32.2442 118.612 32.1734 119.081 32.119C119.549 32.0591 119.889 31.9638 120.102 31.8331C120.314 31.7024 120.42 31.4901 120.42 31.196V31.1388C120.42 30.4255 120.219 29.8729 119.816 29.4808C119.418 29.0888 118.825 28.8928 118.035 28.8928C117.213 28.8928 116.565 29.0752 116.091 29.44C115.623 29.7994 115.299 30.1996 115.119 30.6406L112.824 30.1179C113.096 29.3556 113.494 28.7403 114.017 28.272C114.545 27.7983 115.152 27.4553 115.838 27.2429C116.524 27.0251 117.246 26.9162 118.002 26.9162C118.503 26.9162 119.034 26.9761 119.595 27.0959C120.161 27.2102 120.69 27.4226 121.18 27.733C121.675 28.0433 122.081 28.4871 122.397 29.0643C122.712 29.636 122.87 30.3793 122.87 31.294V39.625H120.485V37.9098H120.387C120.23 38.2256 119.993 38.536 119.677 38.8409C119.361 39.1458 118.955 39.399 118.46 39.6005C117.964 39.802 117.371 39.9027 116.679 39.9027ZM117.21 37.9425C117.885 37.9425 118.463 37.8091 118.942 37.5423C119.426 37.2754 119.794 36.927 120.044 36.4968C120.3 36.0612 120.428 35.5956 120.428 35.1001V33.483C120.341 33.5701 120.172 33.6518 119.922 33.728C119.677 33.7988 119.396 33.8614 119.081 33.9158C118.765 33.9648 118.457 34.0111 118.158 34.0547C117.858 34.0928 117.608 34.1255 117.406 34.1527C116.933 34.2126 116.5 34.3133 116.108 34.4549C115.721 34.5965 115.411 34.8007 115.176 35.0675C114.948 35.3288 114.833 35.6773 114.833 36.1129C114.833 36.7173 115.057 37.1747 115.503 37.4851C115.95 37.79 116.519 37.9425 117.21 37.9425ZM130.82 39.87C129.807 39.87 128.903 39.6114 128.108 39.0941C127.318 38.5714 126.698 37.8281 126.246 36.8643C125.799 35.8951 125.576 34.7326 125.576 33.3768C125.576 32.021 125.802 30.8612 126.254 29.8974C126.711 28.9336 127.337 28.1958 128.132 27.6839C128.927 27.1721 129.829 26.9162 130.836 26.9162C131.614 26.9162 132.241 27.0469 132.714 27.3082C133.194 27.5642 133.564 27.8636 133.825 28.2067C134.092 28.5497 134.299 28.8519 134.446 29.1133H134.593V22.8977H137.035V39.625H134.65V37.6729H134.446C134.299 37.9397 134.087 38.2447 133.809 38.5877C133.537 38.9308 133.161 39.2302 132.682 39.4862C132.203 39.7421 131.582 39.87 130.82 39.87ZM131.359 37.7873C132.061 37.7873 132.655 37.6022 133.139 37.2319C133.629 36.8562 133.999 36.3362 134.25 35.6719C134.506 35.0076 134.634 34.2344 134.634 33.3523C134.634 32.4811 134.509 31.7187 134.258 31.0653C134.008 30.4119 133.64 29.9028 133.155 29.538C132.671 29.1732 132.072 28.9908 131.359 28.9908C130.623 28.9908 130.011 29.1813 129.521 29.5625C129.031 29.9437 128.661 30.4637 128.41 31.1225C128.165 31.7814 128.043 32.5246 128.043 33.3523C128.043 34.1908 128.168 34.945 128.418 35.6147C128.669 36.2844 129.039 36.8153 129.529 37.2074C130.025 37.594 130.634 37.7873 131.359 37.7873ZM166.392 22.8977V39.625H164.072L155.569 27.3572H155.414V39.625H152.89V22.8977H155.226L163.737 35.1818H163.892V22.8977H166.392ZM175.161 39.8782C173.985 39.8782 172.959 39.6087 172.082 39.0696C171.206 38.5305 170.525 37.7764 170.04 36.8072C169.556 35.8379 169.313 34.7054 169.313 33.4094C169.313 32.1081 169.556 30.9701 170.04 29.9954C170.525 29.0207 171.206 28.2638 172.082 27.7248C172.959 27.1857 173.985 26.9162 175.161 26.9162C176.338 26.9162 177.364 27.1857 178.241 27.7248C179.117 28.2638 179.798 29.0207 180.283 29.9954C180.767 30.9701 181.009 32.1081 181.009 33.4094C181.009 34.7054 180.767 35.8379 180.283 36.8072C179.798 37.7764 179.117 38.5305 178.241 39.0696C177.364 39.6087 176.338 39.8782 175.161 39.8782ZM175.17 37.8281C175.932 37.8281 176.564 37.6267 177.065 37.2237C177.565 36.8208 177.936 36.2844 178.175 35.6147C178.42 34.945 178.543 34.2071 178.543 33.4013C178.543 32.6009 178.42 31.8658 178.175 31.196C177.936 30.5208 177.565 29.979 177.065 29.5707C176.564 29.1623 175.932 28.9581 175.17 28.9581C174.402 28.9581 173.765 29.1623 173.258 29.5707C172.757 29.979 172.384 30.5208 172.139 31.196C171.9 31.8658 171.78 32.6009 171.78 33.4013C171.78 34.2071 171.9 34.945 172.139 35.6147C172.384 36.2844 172.757 36.8208 173.258 37.2237C173.765 37.6267 174.402 37.8281 175.17 37.8281ZM186.073 39.625L182.382 27.0795H184.905L187.364 36.2926H187.486L189.953 27.0795H192.477L194.927 36.2518H195.05L197.492 27.0795H200.016L196.332 39.625H193.841L191.293 30.5671H191.105L188.556 39.625H186.073Z" fill="white"/>
<rect x="1.15" y="1.15" width="227.7" height="60.95" rx="30.475" stroke="#014003" stroke-width="2.3"/>
</svg>
