<svg width="78" height="78" viewBox="0 0 78 78" fill="none" xmlns="http://www.w3.org/2000/svg">
<path d="M49.3407 38.9788H43.1003C43.1003 49.0059 43.1003 61.3484 43.1003 61.3484H33.8533C33.8533 61.3484 33.8533 49.1256 33.8533 38.9788H29.4576V31.0727H33.8533V25.9589C33.8533 22.2964 35.5837 16.5735 43.1852 16.5735L50.0375 16.5999V24.2745C50.0375 24.2745 45.8736 24.2745 45.064 24.2745C44.2544 24.2745 43.1034 24.6816 43.1034 26.4282V31.0742H50.1487L49.3407 38.9788Z" fill="#C2D1D9"/>
<mask id="mask0_26_78" style="mask-type:luminance" maskUnits="userSpaceOnUse" x="29" y="16" width="22" height="46">
<path d="M49.3407 38.9788H43.1003C43.1003 49.0059 43.1003 61.3484 43.1003 61.3484H33.8533C33.8533 61.3484 33.8533 49.1256 33.8533 38.9788H29.4576V31.0727H33.8533V25.9589C33.8533 22.2964 35.5837 16.5735 43.1852 16.5735L50.0375 16.5999V24.2745C50.0375 24.2745 45.8736 24.2745 45.064 24.2745C44.2544 24.2745 43.1034 24.6816 43.1034 26.4282V31.0742H50.1487L49.3407 38.9788Z" fill="white"/>
</mask>
<g mask="url(#mask0_26_78)">
<rect x="0.837769" y="0.58252" width="76.3201" height="76.7569" fill="#424B5A"/>
</g>
</svg>
