<svg width="77" height="78" viewBox="0 0 77 78" fill="none" xmlns="http://www.w3.org/2000/svg">
<path fill-rule="evenodd" clip-rule="evenodd" d="M61.0983 52.6943V34.3651V25.2259C61.0983 20.4534 57.239 16.5735 52.4936 16.5735H25.183C20.4376 16.5735 16.5798 20.4534 16.5798 25.2259V34.3651V52.6943C16.5798 57.4685 20.4376 61.3484 25.183 61.3484H52.4951C57.239 61.3484 61.0983 57.4685 61.0983 52.6943ZM46.6762 38.9586C46.6762 43.3047 43.1558 46.8389 38.8376 46.8389C34.5179 46.8389 31.0006 43.3031 31.0054 38.9571C31.0069 37.2415 31.5603 35.6575 32.4873 34.3637C33.9141 32.3785 36.2269 31.0784 38.8424 31.0784C41.4563 31.0784 43.7706 32.3801 45.1943 34.3652C46.1181 35.6591 46.6762 37.2431 46.6762 38.9586ZM55.9479 29.3182V22.7127V21.7297L54.9657 21.7329L48.401 21.7535L48.4262 29.3436L55.9479 29.3182ZM38.8394 51.2038C45.5539 51.2038 51.015 45.7083 51.015 38.9585C51.015 37.3349 50.6887 35.7826 50.1101 34.3651H56.7584V52.6943C56.7584 55.0631 54.8429 56.9816 52.4922 56.9816H25.1817C22.828 56.9816 20.9156 55.0631 20.9156 52.6943V34.3651H27.5607C26.9869 35.7826 26.6653 37.3349 26.6653 38.9585C26.6653 45.7083 32.1248 51.2038 38.8394 51.2038Z" fill="black"/>
<mask id="mask0_26_77" style="mask-type:luminance" maskUnits="userSpaceOnUse" x="16" y="16" width="46" height="46">
<path fill-rule="evenodd" clip-rule="evenodd" d="M61.0983 52.6943V34.3651V25.2259C61.0983 20.4534 57.239 16.5735 52.4936 16.5735H25.183C20.4376 16.5735 16.5798 20.4534 16.5798 25.2259V34.3651V52.6943C16.5798 57.4685 20.4376 61.3484 25.183 61.3484H52.4951C57.239 61.3484 61.0983 57.4685 61.0983 52.6943ZM46.6762 38.9586C46.6762 43.3047 43.1558 46.8389 38.8376 46.8389C34.5179 46.8389 31.0006 43.3031 31.0054 38.9571C31.0069 37.2415 31.5603 35.6575 32.4873 34.3637C33.9141 32.3785 36.2269 31.0784 38.8424 31.0784C41.4563 31.0784 43.7706 32.3801 45.1943 34.3652C46.1181 35.6591 46.6762 37.2431 46.6762 38.9586ZM55.9479 29.3182V22.7127V21.7297L54.9657 21.7329L48.401 21.7535L48.4262 29.3436L55.9479 29.3182ZM38.8394 51.2038C45.5539 51.2038 51.015 45.7083 51.015 38.9585C51.015 37.3349 50.6887 35.7826 50.1101 34.3651H56.7584V52.6943C56.7584 55.0631 54.8429 56.9816 52.4922 56.9816H25.1817C22.828 56.9816 20.9156 55.0631 20.9156 52.6943V34.3651H27.5607C26.9869 35.7826 26.6653 37.3349 26.6653 38.9585C26.6653 45.7083 32.1248 51.2038 38.8394 51.2038Z" fill="white"/>
</mask>
<g mask="url(#mask0_26_77)">
<rect x="0.67981" y="0.58252" width="76.3201" height="76.7569" fill="#424B5A"/>
</g>
</svg>
