<svg width="343" height="70" viewBox="0 0 343 70" fill="none" xmlns="http://www.w3.org/2000/svg">
<rect y="0.923828" width="342.809" height="68.1398" rx="7.26606" fill="#014003"/>
<mask id="mask0_26_149" style="mask-type:luminance" maskUnits="userSpaceOnUse" x="0" y="0" width="343" height="70">
<rect y="0.923828" width="342.809" height="68.1398" rx="7.26606" fill="white"/>
</mask>
<g mask="url(#mask0_26_149)">
<rect y="0.923828" width="342.809" height="68.1398" fill="#014003"/>
</g>
<path fill-rule="evenodd" clip-rule="evenodd" d="M243.389 53.3853H246.777V30.677H243.389V53.3853ZM273.919 38.8571L270.034 48.7026H269.918L265.885 38.8571H262.234L268.283 52.6172L264.833 60.272H268.368L277.689 38.8571H273.919ZM254.695 50.8059C253.587 50.8059 252.038 50.2501 252.038 48.8768C252.038 47.1257 253.967 46.4517 255.633 46.4517C257.12 46.4517 257.823 46.7751 258.728 47.211C258.465 49.3164 256.653 50.8059 254.695 50.8059ZM255.106 38.359C252.652 38.359 250.11 39.4417 249.059 41.8359L252.067 43.0929C252.71 41.8359 253.907 41.4271 255.164 41.4271C256.917 41.4271 258.699 42.4789 258.728 44.3481V44.5824C258.114 44.2318 256.799 43.7069 255.193 43.7069C251.949 43.7069 248.648 45.4889 248.648 48.8185C248.648 51.8576 251.308 53.8158 254.287 53.8158C256.565 53.8158 257.823 52.7931 258.61 51.5942H258.728V53.3471H262.001V44.6406C262.001 40.6097 258.99 38.359 255.106 38.359ZM234.158 41.6215H229.337V33.8377H234.158C236.692 33.8377 238.131 35.934 238.131 37.7287C238.131 39.4889 236.692 41.6215 234.158 41.6215ZM234.071 30.6753H225.949V53.3853H229.337V44.7823H234.071C237.827 44.7823 241.52 42.0612 241.52 37.7288C241.52 33.3964 237.827 30.6753 234.071 30.6753ZM189.782 50.8094C187.441 50.8094 185.481 48.8494 185.481 46.1573C185.481 43.4344 187.441 41.4453 189.782 41.4453C192.093 41.4453 193.907 43.4344 193.907 46.1573C193.907 48.8494 192.093 50.8094 189.782 50.8094ZM193.673 40.1287H193.557C192.796 39.2223 191.332 38.4012 189.49 38.4012C185.626 38.4012 182.084 41.7963 182.084 46.1577C182.084 50.4883 185.626 53.8543 189.49 53.8543C191.332 53.8543 192.796 53.035 193.557 52.0977H193.673V53.2094C193.673 56.1667 192.093 57.7453 189.548 57.7453C187.47 57.7453 186.182 56.2539 185.655 54.9951L182.7 56.2248C183.548 58.2721 185.8 60.7897 189.548 60.7897C193.528 60.7897 196.894 58.4483 196.894 52.7408V38.8699H193.673V40.1287ZM199.235 53.3853H202.629V30.677H199.235V53.3853ZM207.633 45.8939C207.546 42.9076 209.946 41.3872 211.671 41.3872C213.019 41.3872 214.16 42.0611 214.541 43.0257L207.633 45.8939ZM218.169 43.3185C217.524 41.5928 215.564 38.4012 211.555 38.4012C207.575 38.4012 204.267 41.5329 204.267 46.1287C204.267 50.4592 207.546 53.8543 211.935 53.8543C215.475 53.8543 217.524 51.689 218.374 50.4302L215.74 48.6736C214.861 49.9615 213.662 50.8098 211.935 50.8098C210.209 50.8098 208.979 50.0196 208.191 48.4683L218.519 44.1959L218.169 43.3185ZM135.866 40.7733V44.0503H143.708C143.476 45.8941 142.86 47.2401 141.924 48.1756C140.782 49.3182 138.996 50.5771 135.866 50.5771C131.036 50.5771 127.261 46.6843 127.261 41.856C127.261 37.0277 131.036 33.1331 135.866 33.1331C138.471 33.1331 140.373 34.1576 141.777 35.4764L144.09 33.164C142.128 31.2911 139.525 29.8561 135.866 29.8561C129.25 29.8561 123.69 35.242 123.69 41.856C123.69 48.4681 129.25 53.8541 135.866 53.8541C139.436 53.8541 142.128 52.6824 144.235 50.4881C146.4 48.3228 147.074 45.2783 147.074 42.8205C147.074 42.0612 147.016 41.3583 146.898 40.7733H135.866ZM155.99 50.8094C153.65 50.8094 151.63 48.8785 151.63 46.1283C151.63 43.3472 153.65 41.4453 155.99 41.4453C158.331 41.4453 160.351 43.3472 160.351 46.1283C160.351 48.8785 158.331 50.8094 155.99 50.8094ZM155.99 38.4012C151.717 38.4012 148.235 41.6509 148.235 46.1287C148.235 50.5773 151.717 53.8543 155.99 53.8543C160.264 53.8543 163.746 50.5773 163.746 46.1287C163.746 41.6509 160.264 38.4012 155.99 38.4012ZM172.909 50.8094C170.567 50.8094 168.547 48.8785 168.547 46.1283C168.547 43.3472 170.567 41.4453 172.909 41.4453C175.25 41.4453 177.268 43.3472 177.268 46.1283C177.268 48.8785 175.25 50.8094 172.909 50.8094ZM172.909 38.4012C168.636 38.4012 165.154 41.6509 165.154 46.1287C165.154 50.5773 168.636 53.8543 172.909 53.8543C177.181 53.8543 180.663 50.5773 180.663 46.1287C180.663 41.6509 177.181 38.4012 172.909 38.4012Z" fill="white"/>
<path fill-rule="evenodd" clip-rule="evenodd" d="M133.921 21.135C134.824 20.2304 135.275 19.0188 135.275 17.4966C135.275 17.2313 135.249 16.9589 135.198 16.6737H129.918V17.9834H133.874C133.794 18.928 133.489 19.6618 132.962 20.1904C132.148 21.0024 131.135 21.4075 129.918 21.4075C128.77 21.4075 127.778 21.0061 126.941 20.1977C126.103 19.3912 125.685 18.343 125.685 17.0551C125.685 15.7654 126.103 14.7191 126.941 13.9108C127.778 13.1042 128.77 12.701 129.918 12.701C131.186 12.701 132.179 13.1333 132.901 13.9943L133.86 13.0352C133.433 12.5284 132.864 12.1233 132.154 11.8181C131.445 11.5148 130.697 11.3622 129.918 11.3622C128.345 11.3622 127.006 11.9071 125.907 12.997C124.804 14.0888 124.256 15.4403 124.256 17.0551C124.256 18.6682 124.804 20.0215 125.907 21.1114C127.006 22.2031 128.345 22.7481 129.918 22.7481C131.56 22.7481 132.895 22.2104 133.921 21.135ZM138.685 12.9445H143.648V11.6057H137.284V22.5048H143.648V21.1642H138.685V17.7092H143.159V16.3995H138.685V12.9445ZM149.553 22.5043H148.153V12.944H145.108V11.6053H152.598V12.944H149.553V22.5043ZM159.417 22.5043H158.017V11.6053H159.417V22.5043ZM165.628 22.5043H164.228V12.944H161.183V11.6053H168.673V12.944H165.628V22.5043ZM178.854 22.7481C180.447 22.7481 181.779 22.1977 182.851 21.0951C183.921 19.9943 184.456 18.6483 184.456 17.0552C184.456 15.4712 183.919 14.1269 182.843 13.0207C181.766 11.9144 180.438 11.3622 178.854 11.3622C177.261 11.3622 175.93 11.9126 174.86 13.0134C173.788 14.1142 173.254 15.4621 173.254 17.0552C173.254 18.6483 173.788 19.9943 174.86 21.0951C175.93 22.1977 177.261 22.7481 178.854 22.7481ZM175.893 20.1833C176.7 21.0008 177.686 21.4077 178.854 21.4077C180.021 21.4077 181.009 21.0008 181.815 20.1833C182.622 19.3659 183.027 18.3232 183.027 17.0553C183.027 15.7874 182.622 14.7429 181.815 13.9273C181.009 13.1098 180.021 12.7011 178.854 12.7011C177.686 12.7011 176.7 13.1098 175.893 13.9273C175.089 14.7429 174.684 15.7874 174.684 17.0553C174.684 18.3232 175.089 19.3659 175.893 20.1833ZM186.422 11.6053V22.5043H187.822V15.716L187.761 13.6143H187.822L193.363 22.5043H194.825V11.6053H193.423V17.983L193.484 20.0829H193.423L188.126 11.6053H186.422Z" fill="white"/>
<path fill-rule="evenodd" clip-rule="evenodd" d="M68.2125 12.4671C68.2068 12.4724 68.2012 12.4777 68.1955 12.4829L68.2283 12.4502C68.6563 12.0655 69.2045 11.8599 69.8341 11.8599C70.448 11.8599 71.1401 12.056 71.8704 12.472L98.406 27.5491L107.294 32.599C109.832 34.0413 109.832 36.4028 107.294 37.8469L98.406 42.8968L98.2848 42.9639L71.8704 57.9721C70.7675 58.5988 69.7521 58.7259 68.9567 58.4316C68.6874 58.3319 68.4433 58.184 68.2296 57.9907L68.1946 57.9584C68.1608 57.9266 68.1278 57.8936 68.0956 57.8595C67.567 57.3018 67.2546 56.4353 67.2546 55.3091V15.135C67.2546 14.0106 67.567 13.1423 68.0956 12.5828C68.2238 12.4567 68.2182 12.4619 68.2125 12.4671C68.1724 12.5041 68.1335 12.5427 68.0956 12.5828L90.7349 35.2221L68.0956 57.8595L98.406 27.5491L90.7349 35.2221L68.2125 12.4671Z" fill="white"/>
<rect x="0.496825" y="1.42065" width="341.815" height="67.1461" rx="21.8864" stroke="#014003" stroke-width="0.99365"/>
</svg>
