<svg width="77" height="78" viewBox="0 0 77 78" fill="none" xmlns="http://www.w3.org/2000/svg">
<path fill-rule="evenodd" clip-rule="evenodd" d="M58.8544 21.5482L58.7361 21.4689C56.2908 19.1286 53.4117 18.018 50.0988 18.1766L49.9804 17.9386L50.0593 17.899C53.0567 17.2247 54.8315 16.5107 55.3837 15.7174C55.5414 15.0827 55.3442 14.7257 54.6738 14.6464C53.1751 14.8447 51.7552 15.1621 50.5326 15.6777C52.1102 14.6464 52.7018 13.9324 52.3468 13.5754C50.8087 13.6151 49.1128 14.4084 47.3774 15.995C48.0084 14.8844 48.2845 14.2498 48.1268 14.1704C47.2591 14.7257 46.5492 15.3604 45.9181 16.0347C44.5772 17.542 43.5123 18.9303 42.6841 20.1996L42.6446 20.2789C40.5543 23.7298 39.0556 27.1807 38.188 30.7109L37.8724 30.9886L37.7936 31.0282C36.5315 29.4416 34.9933 28.093 33.1791 27.022C31.0494 25.5941 28.5252 24.2851 25.6067 22.9761C22.4515 21.3102 19.2175 19.9616 15.9834 18.8906C15.944 22.5795 17.7582 25.4751 21.2683 27.617V27.6567C20.0457 27.6567 18.8231 27.855 17.6399 28.212C17.8765 31.6232 20.2823 33.9635 24.8179 35.2328L24.7785 35.3121C23.0037 35.1931 21.5444 35.8277 20.4006 37.1367C21.8994 40.0719 24.5418 41.4602 28.3675 41.3809C27.6181 41.7776 27.0265 42.1742 26.6321 42.6502C25.9222 43.4038 25.6856 44.2765 25.9222 45.2681C26.7504 46.7754 28.2097 47.4497 30.3789 47.3307L30.4972 47.4894L30.4578 47.5687C26.711 51.4559 22.1754 53.2012 16.8905 52.8442L16.8116 52.8839C13.5776 52.8442 10.1069 51.2973 6.36011 48.2034C10.1069 53.6375 15.1157 57.5644 21.3078 60.0633C28.3675 62.4036 35.4666 62.6019 42.5263 60.579H42.6446C49.5072 58.5957 55.3048 54.4705 60.1164 48.2827C62.3251 45.0698 63.7055 41.9759 64.2576 39.001C67.8466 39.12 70.4102 38.0887 72.0272 35.8674L71.9878 35.7881C70.7652 36.2244 68.4382 36.1054 65.007 35.3914V34.9948C68.7932 34.5584 71.0412 33.3288 71.7512 31.3059C69.1087 32.3372 66.5057 32.3769 63.9421 31.3852C63.4688 27.8153 61.7729 24.5231 58.8544 21.5482Z" fill="#C2D1D9"/>
<mask id="mask0_26_79" style="mask-type:luminance" maskUnits="userSpaceOnUse" x="6" y="13" width="67" height="49">
<path fill-rule="evenodd" clip-rule="evenodd" d="M58.8544 21.5482L58.7361 21.4689C56.2908 19.1286 53.4117 18.018 50.0988 18.1766L49.9804 17.9386L50.0593 17.899C53.0567 17.2247 54.8315 16.5107 55.3837 15.7174C55.5414 15.0827 55.3442 14.7257 54.6738 14.6464C53.1751 14.8447 51.7552 15.1621 50.5326 15.6777C52.1102 14.6464 52.7018 13.9324 52.3468 13.5754C50.8087 13.6151 49.1128 14.4084 47.3774 15.995C48.0084 14.8844 48.2845 14.2498 48.1268 14.1704C47.2591 14.7257 46.5492 15.3604 45.9181 16.0347C44.5772 17.542 43.5123 18.9303 42.6841 20.1996L42.6446 20.2789C40.5543 23.7298 39.0556 27.1807 38.188 30.7109L37.8724 30.9886L37.7936 31.0282C36.5315 29.4416 34.9933 28.093 33.1791 27.022C31.0494 25.5941 28.5252 24.2851 25.6067 22.9761C22.4515 21.3102 19.2175 19.9616 15.9834 18.8906C15.944 22.5795 17.7582 25.4751 21.2683 27.617V27.6567C20.0457 27.6567 18.8231 27.855 17.6399 28.212C17.8765 31.6232 20.2823 33.9635 24.8179 35.2328L24.7785 35.3121C23.0037 35.1931 21.5444 35.8277 20.4006 37.1367C21.8994 40.0719 24.5418 41.4602 28.3675 41.3809C27.6181 41.7776 27.0265 42.1742 26.6321 42.6502C25.9222 43.4038 25.6856 44.2765 25.9222 45.2681C26.7504 46.7754 28.2097 47.4497 30.3789 47.3307L30.4972 47.4894L30.4578 47.5687C26.711 51.4559 22.1754 53.2012 16.8905 52.8442L16.8116 52.8839C13.5776 52.8442 10.1069 51.2973 6.36011 48.2034C10.1069 53.6375 15.1157 57.5644 21.3078 60.0633C28.3675 62.4036 35.4666 62.6019 42.5263 60.579H42.6446C49.5072 58.5957 55.3048 54.4705 60.1164 48.2827C62.3251 45.0698 63.7055 41.9759 64.2576 39.001C67.8466 39.12 70.4102 38.0887 72.0272 35.8674L71.9878 35.7881C70.7652 36.2244 68.4382 36.1054 65.007 35.3914V34.9948C68.7932 34.5584 71.0412 33.3288 71.7512 31.3059C69.1087 32.3372 66.5057 32.3769 63.9421 31.3852C63.4688 27.8153 61.7729 24.5231 58.8544 21.5482Z" fill="white"/>
</mask>
<g mask="url(#mask0_26_79)">
<rect y="0.782715" width="76.3201" height="76.7569" fill="#424B5A"/>
</g>
</svg>
